<?xml version="1.0" encoding="UTF-8"?>
<svg width="127px" height="126px" viewBox="0 0 127 126" version="1.1" xmlns="http://www.w3.org/2000/svg" xmlns:xlink="http://www.w3.org/1999/xlink">
    <!-- Generator: Sketch 49.3 (51167) - http://www.bohemiancoding.com/sketch -->
    <title>empty state - new</title>
    <desc>Created with Sketch.</desc>
    <defs>
        <path d="M26,0 L119,0 C123.418278,-8.11624501e-16 127,3.581722 127,8 L127,101 C127,105.418278 123.418278,109 119,109 L26,109 C21.581722,109 18,105.418278 18,101 L18,8 C18,3.581722 21.581722,8.11624501e-16 26,0 Z" id="path-1"></path>
        <mask id="mask-2" maskContentUnits="userSpaceOnUse" maskUnits="objectBoundingBox" x="0" y="0" width="109" height="109" fill="white">
            <use xlink:href="#path-1"></use>
        </mask>
        <path d="M8,17 L101,17 C105.418278,17 109,20.581722 109,25 L109,118 C109,122.418278 105.418278,126 101,126 L8,126 C3.581722,126 5.41083001e-16,122.418278 0,118 L0,25 C-5.41083001e-16,20.581722 3.581722,17 8,17 Z" id="path-3"></path>
        <mask id="mask-4" maskContentUnits="userSpaceOnUse" maskUnits="objectBoundingBox" x="0" y="0" width="109" height="109" fill="white">
            <use xlink:href="#path-3"></use>
        </mask>
        <path d="M37.7142857,0 L6.28571429,0 C2.82857143,0 0.0314285714,2.8 0.0314285714,6.22222222 L0,56 L22,46.6666667 L44,56 L44,6.22222222 C44,2.8 41.1714286,0 37.7142857,0 Z M37.7142857,46.6666667 L22,39.8844444 L6.28571429,46.6666667 L6.28571429,6.22222222 L37.7142857,6.22222222 L37.7142857,46.6666667 Z" id="path-5"></path>
    </defs>
    <g id="update-10/2018" stroke="none" stroke-width="1" fill="none" fill-rule="evenodd">
        <g id="Empty-Landing" transform="translate(-123.000000, -131.000000)">
            <g id="empty-state---new" transform="translate(123.000000, 131.000000)">
                <use id="Rectangle-2" stroke="#BDC1C6" mask="url(#mask-2)" stroke-width="2" stroke-dasharray="2" xlink:href="#path-1"></use>
                <path d="M8,13 L105,13 C109.418278,13 113,16.581722 113,21 L113,118 C113,122.418278 109.418278,126 105,126 L8,126 C3.581722,126 5.41083001e-16,122.418278 0,118 L0,21 C-5.41083001e-16,16.581722 3.581722,13 8,13 Z" id="Rectangle-2" fill="#FFFFFF"></path>
                <use id="Rectangle-2" stroke="#BDC1C6" mask="url(#mask-4)" stroke-width="2" fill="#FFFFFF" stroke-dasharray="2" xlink:href="#path-3"></use>
                <g id="bookmark" transform="translate(33.000000, 43.000000)">
                    <mask id="mask-6" fill="white">
                        <use xlink:href="#path-5"></use>
                    </mask>
                    <g id="ic_turned_in_not_24px" fill-rule="nonzero"></g>
                    <g id="c/blue/500" mask="url(#mask-6)" fill="#9AA0A6">
                        <g transform="translate(-4.981132, -3.294118)" id="Rectangle">
                            <rect x="0" y="0" width="51" height="60"></rect>
                        </g>
                    </g>
                </g>
            </g>
        </g>
    </g>
</svg>
