<?xml version="1.0" encoding="UTF-8" standalone="no"?>
<svg width="137px" height="45px" viewBox="0 0 137 45" version="1.1" xmlns="http://www.w3.org/2000/svg" xmlns:xlink="http://www.w3.org/1999/xlink">
    <!-- Generator: Sketch 39.1 (31720) - http://www.bohemiancoding.com/sketch -->
    <title>Logo</title>
    <desc>Created with Sketch.</desc>
    <defs>
        <polygon id="path-1" points="0 0 136.417272 0 136.417272 44.479648 0 44.479648"></polygon>
    </defs>
    <g id="Desktop" stroke="none" stroke-width="1" fill="none" fill-rule="evenodd">
        <g id="DESKTOP-HP" transform="translate(-192.000000, -8766.000000)">
            <g id="FOOTER" transform="translate(3.000000, 7845.000000)">
                <g id="Bottom" transform="translate(188.900000, 192.245325)">
                    <g id="Logo" transform="translate(68.500000, 751.128163) scale(1, -1) translate(-68.500000, -751.128163) translate(0.000000, 728.628163)">
                        <path d="M0.236926632,27.2878061 C0.236926632,36.749216 8.21241813,44.4523715 17.6993212,44.4523715 C22.9464672,44.4523715 26.6825297,42.4010748 29.4948242,39.7218301 L26.1785072,36.4143104 C24.1637291,38.2984814 21.4353836,39.7636933 17.6993212,39.7636933 C10.7731933,39.7636933 5.35814906,34.1955609 5.35814906,27.2878061 C5.35814906,20.3800514 10.7731933,14.811919 17.6993212,14.811919 C22.1905975,14.811919 24.7513727,16.6120365 26.3883799,18.2450283 C27.7318933,19.5846506 28.6130308,21.5103578 28.9491551,24.1477392 L17.6993212,24.1477392 L17.6993212,28.8367445 L33.5243805,28.8367445 C33.6922787,27.9994805 33.7762278,26.9947638 33.7762278,25.9059936 C33.7762278,22.3894849 32.8108133,18.0353853 29.704369,14.9375086 C26.6825297,11.7977687 22.8202157,10.1232408 17.6993212,10.1232408 C8.21241813,10.1232408 0.236926632,17.8260693 0.236926632,27.2878061" id="Fill-1" fill="#5f6368"></path>
                        <path d="M46.5656422,14.4770134 C43.2073506,14.4770134 40.311107,17.2399845 40.311107,21.1754522 C40.311107,25.152783 43.2073506,27.8738909 46.5656422,27.8738909 C49.9236058,27.8738909 52.8198494,25.152783 52.8198494,21.1754522 C52.8198494,17.2399845 49.9236058,14.4770134 46.5656422,14.4770134 M46.5656422,32.2276635 C40.4370306,32.2276635 35.4417319,27.5808485 35.4417319,21.1754522 C35.4417319,14.811919 40.4370306,10.1229138 46.5656422,10.1229138 C52.6939257,10.1229138 57.6892245,14.811919 57.6892245,21.1754522 C57.6892245,27.5808485 52.6939257,32.2276635 46.5656422,32.2276635" id="Fill-3" fill="#5f6368"></path>
                        <path d="M70.8320121,14.4770134 C67.4740485,14.4770134 64.5774769,17.2399845 64.5774769,21.1754522 C64.5774769,25.152783 67.4740485,27.8738909 70.8320121,27.8738909 C74.1899757,27.8738909 77.0862193,25.152783 77.0862193,21.1754522 C77.0862193,17.2399845 74.1899757,14.4770134 70.8320121,14.4770134 M70.8320121,32.2276635 C64.7034006,32.2276635 59.7081018,27.5808485 59.7081018,21.1754522 C59.7081018,14.811919 64.7034006,10.1229138 70.8320121,10.1229138 C76.9602957,10.1229138 81.9559224,14.811919 81.9559224,21.1754522 C81.9559224,27.5808485 76.9602957,32.2276635 70.8320121,32.2276635" id="Fill-5" fill="#5f6368"></path>
                        <path d="M95.0347972,14.4770134 C91.6768335,14.4770134 88.8642111,17.2818477 88.8642111,21.133589 C88.8642111,25.0268664 91.6768335,27.8738909 95.0347972,27.8738909 C98.3507862,27.8738909 100.953536,25.0268664 100.953536,21.133589 C100.953536,17.2818477 98.3507862,14.4770134 95.0347972,14.4770134 L95.0347972,14.4770134 Z M100.617412,31.5581794 L100.617412,29.7577348 L100.449841,29.7577348 C99.3585032,31.055494 97.259448,32.2276635 94.6150517,32.2276635 C89.0740838,32.2276635 83.9948359,27.3715325 83.9948359,21.133589 C83.9948359,14.9375086 89.0740838,10.1229138 94.6150517,10.1229138 C97.259448,10.1229138 99.3585032,11.2950833 100.449841,12.6350327 L100.617412,12.6350327 L100.617412,11.0439041 C100.617412,6.81572112 98.3507862,4.55510842 94.6990008,4.55510842 C91.7188081,4.55510842 89.8716002,6.69013152 89.1160584,8.49024904 L84.8763014,6.73199472 C86.0935632,3.8012438 89.3259311,0.201008762 94.6990008,0.201008762 C100.407867,0.201008762 105.23494,3.55006461 105.23494,11.7137153 L105.23494,31.5581794 L100.617412,31.5581794 Z" id="Fill-7" fill="#5f6368"></path>
                        <mask id="mask-2" fill="white">
                            <use xlink:href="#path-1"></use>
                        </mask>
                        <g id="Clip-10"></g>
                        <polygon id="Fill-9" fill="#5f6368" mask="url(#mask-2)" points="113.462442 10.7928558 108.593067 10.7928558 108.593067 43.2803328 113.462442 43.2803328"></polygon>
                        <path d="M126.433101,27.9575519 C128.364258,27.9575519 130.001266,26.9946983 130.546935,25.6132128 L120.640614,21.5102923 C120.514363,25.7806656 123.956603,27.9575519 126.433101,27.9575519 M126.810872,14.476948 C124.334374,14.476948 122.571443,15.6072544 121.438131,17.8260039 L136.255801,23.9383578 L135.752106,25.1945808 C134.828666,27.6645095 132.016044,32.2279252 126.265203,32.2279252 C120.556337,32.2279252 115.813214,27.7482359 115.813214,21.1753868 C115.813214,14.9793064 120.514363,10.1231754 126.810872,10.1231754 C131.89012,10.1231754 134.828666,13.2210521 136.0456,15.0211696 L132.267891,17.5329615 C131.008655,15.6909808 129.287698,14.476948 126.810872,14.476948" id="Fill-11" fill="#5f6368" mask="url(#mask-2)"></path>
                    </g>
                </g>
            </g>
        </g>
    </g>
</svg>