<svg width="143" height="47" viewBox="0 0 143 47" xmlns="http://www.w3.org/2000/svg" xmlns:xlink="http://www.w3.org/1999/xlink"><title>Google</title><defs><path id="a" d="M0 .24h142.976v46.753H0z"/></defs><g transform="translate(.129)" fill="none" fill-rule="evenodd"><path d="M0 18.376C0 8.38 8.383.24 18.356.24c5.515 0 9.442 2.167 12.398 4.998l-3.486 3.494c-2.117-1.99-4.985-3.538-8.912-3.538-7.28 0-12.973 5.882-12.973 13.18 0 7.299 5.692 13.181 12.973 13.181 4.72 0 7.412-1.901 9.133-3.627 1.412-1.415 2.339-3.45 2.692-6.236H18.356v-4.954H34.99c.177.885.265 1.946.265 3.096 0 3.716-1.015 8.316-4.28 11.589-3.177 3.317-7.237 5.086-12.62 5.086C8.384 36.51 0 28.372 0 18.376" fill="#4285F4"/><path d="M48.698 31.91c-3.53 0-6.574-2.919-6.574-7.077 0-4.202 3.044-7.077 6.574-7.077s6.575 2.875 6.575 7.077c0 4.158-3.045 7.077-6.575 7.077m0-18.753c-6.442 0-11.692 4.909-11.692 11.676 0 6.723 5.25 11.677 11.692 11.677s11.693-4.954 11.693-11.677c0-6.767-5.25-11.676-11.693-11.676" fill="#EB4335"/><path d="M74.206 31.91c-3.53 0-6.574-2.919-6.574-7.077 0-4.202 3.044-7.077 6.574-7.077s6.574 2.875 6.574 7.077c0 4.158-3.044 7.077-6.574 7.077m0-18.753c-6.442 0-11.693 4.909-11.693 11.676 0 6.723 5.25 11.677 11.693 11.677 6.442 0 11.693-4.954 11.693-11.677 0-6.767-5.251-11.676-11.693-11.676" fill="#FBBC05"/><path d="M99.647 31.91c-3.53 0-6.486-2.963-6.486-7.033 0-4.113 2.956-7.12 6.486-7.12 3.485 0 6.221 3.007 6.221 7.12 0 4.07-2.736 7.033-6.221 7.033zm5.868-18.046v1.902h-.176c-1.147-1.371-3.354-2.61-6.133-2.61-5.825 0-11.164 5.131-11.164 11.721 0 6.547 5.34 11.633 11.164 11.633 2.78 0 4.986-1.238 6.133-2.654h.176v1.681c0 4.467-2.383 6.856-6.221 6.856-3.133 0-5.074-2.256-5.869-4.158l-4.456 1.858c1.28 3.096 4.677 6.9 10.325 6.9 6 0 11.075-3.538 11.075-12.163V13.864h-4.854z" fill="#4285F4"/><mask id="b" fill="#fff"><use xlink:href="#a"/></mask><path fill="#34A853" mask="url(#b)" d="M119.017 35.802h-5.119V1.48h5.119z"/><path d="M132.651 17.668c2.03 0 3.75 1.017 4.324 2.477l-10.413 4.334c-.132-4.511 3.486-6.811 6.09-6.811m.396 14.242c-2.603 0-4.456-1.194-5.647-3.538l15.575-6.458-.53-1.327c-.97-2.61-3.926-7.43-9.971-7.43-6.001 0-10.987 4.732-10.987 11.676 0 6.547 4.942 11.677 11.56 11.677 5.34 0 8.428-3.273 9.707-5.175l-3.97-2.653c-1.324 1.946-3.133 3.228-5.737 3.228" fill="#EB4335" mask="url(#b)"/></g></svg>