<svg width="36" height="36" viewBox="0 0 36 36" xmlns="http://www.w3.org/2000/svg"><title>ic_group_36dp</title><g fill="none" fill-rule="evenodd"><path d="M0 0h36v36H0z"/><path d="M24 16.5a4.49 4.49 0 0 0 4.485-4.5A4.49 4.49 0 0 0 24 7.5a4.504 4.504 0 0 0-4.5 4.5c0 2.482 2.017 4.5 4.5 4.5zm-12 0a4.49 4.49 0 0 0 4.485-4.5A4.49 4.49 0 0 0 12 7.5 4.504 4.504 0 0 0 7.5 12c0 2.482 2.018 4.5 4.5 4.5zm0 3c-3.502 0-10.5 1.755-10.5 5.25v3.75h21v-3.75c0-3.495-6.998-5.25-10.5-5.25zm12 0c-.435 0-.922.03-1.448.082 1.74 1.253 2.948 2.94 2.948 5.168v3.75h9v-3.75c0-3.495-6.997-5.25-10.5-5.25z" fill="#4285F4"/></g></svg>