<svg width="18" height="18" viewBox="0 0 18 18" xmlns="http://www.w3.org/2000/svg"><title>ic_mode_comment_18dp</title><g fill="none" fill-rule="evenodd"><path d="M17 3c0-.55-.45-1-1-1H2c-.55 0-1 .45-1 1v11c0 .55.45 1 1 1h11.5l3.5 3V3z" fill="#FFF"/><path d="M0 0h18v18H0z"/><path d="M11.2 11H7.472v-.52L9.44 8.293c.293-.33.494-.6.605-.807.11-.207.166-.42.166-.642 0-.297-.09-.54-.27-.73-.178-.19-.418-.286-.717-.286-.36 0-.64.102-.838.307-.2.204-.3.49-.3.853h-.722c0-.523.17-.946.506-1.27.336-.322.788-.484 1.353-.484.528 0 .946.14 1.254.416.307.278.46.647.46 1.108 0 .56-.356 1.226-1.07 2L8.344 10.41H11.2V11z" fill-opacity=".54" fill="#000"/></g></svg>