<?xml version="1.0" encoding="UTF-8" standalone="no"?>
<svg width="18px" height="18px" viewBox="0 0 18 18" version="1.1" xmlns="http://www.w3.org/2000/svg" xmlns:xlink="http://www.w3.org/1999/xlink">
    <!-- Generator: Sketch 3.7.1 (28215) - http://www.bohemiancoding.com/sketch -->
    <title>ic_mode_comment_alt_18dp</title>
    <desc>Created with Sketch.</desc>
    <defs></defs>
    <g id="Symbols" stroke="none" stroke-width="1" fill="none" fill-rule="evenodd">
        <g id="ic_mode_comment_alt_18dp">
            <g id="ic_mode_comment_18dp">
                <g id="Group">
                    <path d="M17,3 C17,2.45 16.55,2 16,2 L2,2 C1.45,2 1,2.45 1,3 L1,14 C1,14.55 1.45,15 2,15 L13.5,15 L17,18 L17,3 L17,3 Z" id="Shape" fill="#FFFFFF"></path>
                    <polygon id="Shape" points="0 0 18 0 18 18 0 18"></polygon>
                </g>
            </g>
            <path d="M8.5234375,7.8046875 L9.06640625,7.8046875 C9.40755379,7.79947914 9.67578027,7.70963629 9.87109375,7.53515625 C10.0664072,7.36067621 10.1640625,7.12500148 10.1640625,6.828125 C10.1640625,6.161455 9.83203457,5.828125 9.16796875,5.828125 C8.85546719,5.828125 8.60612072,5.91731682 8.41992188,6.09570312 C8.23372303,6.27408943 8.140625,6.5104152 8.140625,6.8046875 L7.41796875,6.8046875 C7.41796875,6.35416441 7.58268064,5.9798192 7.91210938,5.68164062 C8.24153811,5.38346205 8.66015371,5.234375 9.16796875,5.234375 C9.70442977,5.234375 10.1249985,5.37630066 10.4296875,5.66015625 C10.7343765,5.94401184 10.8867188,6.33853914 10.8867188,6.84375 C10.8867188,7.09114707 10.8066414,7.33072801 10.6464844,7.5625 C10.4863273,7.79427199 10.2682305,7.96744734 9.9921875,8.08203125 C10.3046891,8.18099008 10.5462231,8.34505094 10.7167969,8.57421875 C10.8873706,8.80338656 10.9726562,9.08333168 10.9726562,9.4140625 C10.9726562,9.92448172 10.8059912,10.3294256 10.4726562,10.6289062 C10.1393213,10.9283869 9.70573184,11.078125 9.171875,11.078125 C8.63801816,11.078125 8.20377771,10.9335952 7.86914062,10.6445312 C7.53450354,10.3554673 7.3671875,9.9739607 7.3671875,9.5 L8.09375,9.5 C8.09375,9.79948066 8.19140527,10.0390616 8.38671875,10.21875 C8.58203223,10.3984384 8.84374836,10.4882812 9.171875,10.4882812 C9.52083508,10.4882812 9.78775949,10.3971363 9.97265625,10.2148438 C10.157553,10.0325512 10.25,9.77083504 10.25,9.4296875 C10.25,9.09895668 10.1484385,8.84505297 9.9453125,8.66796875 C9.74218648,8.49088453 9.44922066,8.39973961 9.06640625,8.39453125 L8.5234375,8.39453125 L8.5234375,7.8046875 Z" id="3" fill-opacity="0.54" fill="#000000"></path>
        </g>
    </g>
</svg>