<svg width="165" height="92" viewBox="0 0 165 92" xmlns="http://www.w3.org/2000/svg" xmlns:xlink="http://www.w3.org/1999/xlink"><title>ratings_play_store</title><defs><path id="a" d="M12 17.6l7.42 5.4-2.84-8.72L24 9h-9.1L12 0 9.1 9H0l7.42 5.28L4.58 23z"/><radialGradient cy="46.154%" fx="50%" fy="46.154%" r="318.56%" id="c"><stop stop-color="#FFF" stop-opacity=".4" offset="0%"/><stop stop-color="#FFF" stop-opacity="0" offset="100%"/></radialGradient><linearGradient x1="91.488%" y1="4.966%" x2="-38.332%" y2="71.908%" id="d"><stop stop-color="#00A0FF" offset="0%"/><stop stop-color="#00A1FF" offset=".657%"/><stop stop-color="#00BEFF" offset="26.01%"/><stop stop-color="#00D2FF" offset="51.22%"/><stop stop-color="#00DFFF" offset="76.04%"/><stop stop-color="#00E3FF" offset="100%"/></linearGradient><linearGradient x1="129.911%" y1="50%" x2="-108.095%" y2="50%" id="e"><stop stop-color="#FFE000" offset="0%"/><stop stop-color="#FF9C00" offset="100%"/></linearGradient><linearGradient x1="86.242%" y1="17.843%" x2="-50.123%" y2="194.799%" id="f"><stop stop-color="#FF3A44" offset="0%"/><stop stop-color="#C31162" offset="100%"/></linearGradient><linearGradient x1="-18.791%" y1="-54.137%" x2="42.102%" y2="24.874%" id="g"><stop stop-color="#32A071" offset="0%"/><stop stop-color="#2DA771" offset="6.85%"/><stop stop-color="#15CF74" offset="47.62%"/><stop stop-color="#06E775" offset="80.09%"/><stop stop-color="#00F076" offset="100%"/></linearGradient></defs><g fill="none" fill-rule="evenodd"><path fill="#FFF" d="M19 22.6l7.42 5.4-2.84-8.72L31 14h-9.1L19 5l-2.9 9H7l7.42 5.28L11.58 28z"/><path d="M1 0h36v36H1z"/><path fill="#FFF" d="M51 22.6l7.42 5.4-2.84-8.72L63 14h-9.1L51 5l-2.9 9H39l7.42 5.28L43.58 28z"/><path d="M33 0h36v36H33z"/><path fill="#FFF" d="M83 22.6l7.42 5.4-2.84-8.72L95 14h-9.1L83 5l-2.9 9H71l7.42 5.28L75.58 28z"/><path d="M65 0h36v36H65z"/><g><path fill="#FFF" d="M115 22.6l7.42 5.4-2.84-8.72L127 14h-9.1L115 5l-2.9 9H103l7.42 5.28-2.84 8.72z"/><path d="M97 0h36v36H97z"/></g><g><path d="M129 0h36v36h-36z"/><g transform="translate(135 5)"><mask id="b" fill="#fff"><use xlink:href="#a"/></mask><use fill-opacity=".5" fill="#FFF" xlink:href="#a"/><path fill="#FFF" mask="url(#b)" d="M0 0h9v23H0z"/></g></g><g><g fill="#FFF"><path d="M56.974 63.725c0-3.393 2.852-6.155 6.245-6.155 1.876 0 3.21.736 4.218 1.696l-1.186 1.186c-.72-.676-1.696-1.2-3.033-1.2-2.478 0-4.414 1.995-4.414 4.473 0 2.478 1.936 4.475 4.413 4.475 1.606 0 2.52-.645 3.107-1.232.48-.48.795-1.17.916-2.117H63.22v-1.68h5.66c.06.3.09.66.09 1.05 0 1.26-.345 2.822-1.457 3.934-1.082 1.126-2.462 1.727-4.294 1.727-3.394 0-6.246-2.76-6.246-6.155zM73.544 61.953c-2.192 0-3.98 1.667-3.98 3.963 0 2.283 1.788 3.963 3.98 3.963s3.978-1.682 3.978-3.964c0-2.296-1.786-3.963-3.978-3.963zm0 6.367c-1.2 0-2.237-.99-2.237-2.402 0-1.427 1.036-2.402 2.237-2.402 1.2 0 2.236.975 2.236 2.402 0 1.41-1.035 2.402-2.236 2.402zM82.223 61.953c-2.192 0-3.978 1.667-3.978 3.963 0 2.283 1.786 3.963 3.978 3.963s3.978-1.682 3.978-3.964c0-2.296-1.785-3.963-3.977-3.963zm0 6.367c-1.2 0-2.237-.99-2.237-2.402 0-1.427 1.036-2.402 2.237-2.402 1.2 0 2.237.975 2.237 2.402 0 1.41-1.036 2.402-2.237 2.402zM92.876 62.194v.645h-.06c-.39-.467-1.14-.887-2.086-.887-1.982 0-3.8 1.742-3.8 3.98 0 2.22 1.818 3.948 3.8 3.948.945 0 1.696-.42 2.086-.9h.06v.57c0 1.516-.81 2.327-2.117 2.327-1.067 0-1.727-.766-1.997-1.41l-1.517.63c.435 1.05 1.592 2.342 3.513 2.342 2.04 0 3.767-1.202 3.767-4.13v-7.116h-1.65zM90.88 68.32c-1.2 0-2.208-1.007-2.208-2.387 0-1.396 1.007-2.417 2.208-2.417 1.186 0 2.117 1.02 2.117 2.417 0 1.38-.93 2.387-2.117 2.387zM95.728 57.99h1.742v11.65h-1.742zM102.245 68.32c-.886 0-1.517-.406-1.92-1.2l5.3-2.194-.182-.45c-.33-.885-1.336-2.522-3.393-2.522-2.042 0-3.738 1.607-3.738 3.964 0 2.22 1.682 3.963 3.934 3.963 1.817 0 2.868-1.11 3.303-1.756l-1.352-.9c-.452.66-1.068 1.096-1.953 1.096zm-.136-4.835c.69 0 1.275.345 1.47.84l-3.544 1.472c-.044-1.532 1.187-2.312 2.073-2.312z"/></g><g fill="#FFF"><path d="M113.27 57.99h-4.166v11.65h1.738v-4.413h2.428c1.927 0 3.822-1.396 3.822-3.62 0-2.22-1.894-3.617-3.82-3.617zm.045 5.615h-2.473V59.61h2.473c1.3 0 2.04 1.078 2.04 1.997 0 .905-.74 1.998-2.04 1.998zM119.79 69.64V57.99h-1.738v11.65zM127.6 69.62v-4.466c0-2.068-1.545-3.222-3.54-3.222-1.257 0-2.56.555-3.1 1.784l1.543.644c.33-.644.944-.854 1.59-.854.898 0 1.812.54 1.827 1.5v.12c-.314-.18-.988-.45-1.813-.45-1.663 0-3.357.914-3.357 2.622 0 1.56 1.364 2.563 2.893 2.563 1.17 0 1.813-.524 2.217-1.138h.06v.9h1.68v-.002zm-3.748-1.303c-.57 0-1.364-.285-1.364-.988 0-.9.99-1.246 1.844-1.246.765 0 1.124.165 1.59.39a2.11 2.11 0 0 1-2.07 1.843zM133.714 62.187l-1.994 5.05h-.06l-2.068-5.05h-1.873l3.102 7.06-1.77 3.926h1.814l4.78-10.986z"/></g><path d="M15.604 37.738h135.25v52.544H15.603z"/><path d="M45.16 57.677V56.62l-1.76-1.758h-4.925l-1.76 1.76v1.055h-6.098V71.75c0 .775.633 1.41 1.407 1.41h17.828c.774 0 1.407-.635 1.407-1.41V57.678h-6.1zm-6.685-.82c0-.195.158-.353.352-.353h4.222c.193 0 .35.158.35.352v.82h-4.925v-.82z" fill="#EDEDED"/><path d="M14.543 2.815V1.76L12.783 0H7.86l-1.76 1.76v1.055H0V16.89c0 .773.633 1.407 1.407 1.407h17.828c.774 0 1.407-.634 1.407-1.408V2.814h-6.1zm-6.685-.82c0-.195.16-.353.352-.353h4.222c.194 0 .352.158.352.352v.82H7.858v-.82z" fill="url(#c)" transform="translate(30.617 54.862)"/><path d="M49.852 73.042H32.024a1.412 1.412 0 0 1-1.407-1.408v.117c0 .775.633 1.41 1.407 1.41h17.828c.774 0 1.407-.635 1.407-1.41v-.116c0 .774-.634 1.408-1.408 1.408z" fill="#000" opacity=".16"/><g><path d="M.203.29C.075.427 0 .637 0 .908v9.68c0 .27.075.48.203.615l.033.032L5.66 5.81v-.127L.234.26.203.29z" fill="url(#d)" transform="translate(36.247 59.67)"/><path d="M7.466 7.62L5.66 5.81v-.127l1.808-1.81.04.024L9.65 5.115c.613.347.613.916 0 1.264L7.51 7.596l-.044.022z" fill="url(#e)" transform="translate(36.247 59.67)"/><path d="M7.507 7.595l-1.85-1.848-5.455 5.456c.2.214.535.24.91.027l6.395-3.635" fill="url(#f)" transform="translate(36.247 59.67)"/><path fill="#097138" d="M41.905 65.417l1.85-1.85z"/><path d="M7.507 3.897L1.112.264C.737.05.402.077.202.29l5.456 5.457 1.85-1.85z" fill="url(#g)" transform="translate(36.247 59.67)"/><path d="M43.678 67.19l-6.32 3.592c-.355.2-.658.176-.846.03l-.062.06.033.033c.204.184.522.197.877-.005l6.394-3.633-.076-.077z" fill="#000" opacity=".2"/><path d="M45.896 65.93l-2.218 1.26.075.075 2.142-1.217c.306-.174.46-.402.46-.632-.026.21-.182.356-.46.515z" fill="#000" opacity=".12"/><path d="M37.36 60.052l8.536 4.85c.277.158.433.307.46.515 0-.23-.154-.46-.46-.632l-8.537-4.85c-.613-.347-1.113-.06-1.113.642v.064c0-.615.5-.935 1.112-.588z" fill="#FFF" opacity=".25"/></g></g></g></svg>