<svg width="165" height="92" viewBox="0 0 165 92" xmlns="http://www.w3.org/2000/svg" xmlns:xlink="http://www.w3.org/1999/xlink"><title>ratings_app_store</title><defs><path id="a" d="M18 22.6l7.42 5.4-2.84-8.72L30 14h-9.1L18 5l-2.9 9H6l7.42 5.28L10.58 28z"/></defs><g fill="none" fill-rule="evenodd"><path fill="#FFF" d="M19 22.6l7.42 5.4-2.84-8.72L31 14h-9.1L19 5l-2.9 9H7l7.42 5.28L11.58 28z"/><path d="M1 0h36v36H1z"/><path fill="#FFF" d="M51 22.6l7.42 5.4-2.84-8.72L63 14h-9.1L51 5l-2.9 9H39l7.42 5.28L43.58 28z"/><path d="M33 0h36v36H33z"/><path fill="#FFF" d="M83 22.6l7.42 5.4-2.84-8.72L95 14h-9.1L83 5l-2.9 9H71l7.42 5.28L75.58 28z"/><path d="M65 0h36v36H65z"/><g><path fill="#FFF" d="M115 22.6l7.42 5.4-2.84-8.72L127 14h-9.1L115 5l-2.9 9H103l7.42 5.28-2.84 8.72z"/><path d="M97 0h36v36H97z"/></g><g transform="translate(129)"><path d="M18 22.6l7.42 5.4-2.84-8.72L30 14h-9.1L18 5l-2.9 9H6l7.42 5.28L10.58 28z"/><path d="M0 0h36v36H0z"/><use fill="#FFF" xlink:href="#a"/></g><g><g fill="#FFF"><path d="M54.078 64.652c-.024-2.55 2.087-3.79 2.183-3.848-1.194-1.743-3.047-1.98-3.698-2-1.556-.164-3.064.93-3.857.93-.808 0-2.03-.913-3.345-.886-1.693.025-3.277 1.006-4.145 2.528-1.792 3.104-.455 7.664 1.262 10.172.858 1.228 1.862 2.6 3.177 2.553 1.286-.052 1.765-.82 3.317-.82 1.537 0 1.99.82 3.328.79 1.38-.023 2.25-1.235 3.078-2.475.992-1.408 1.39-2.795 1.407-2.866-.032-.012-2.678-1.02-2.705-4.078zM51.547 57.155c.69-.864 1.164-2.04 1.033-3.235-1 .045-2.252.692-2.973 1.538-.638.745-1.207 1.967-1.06 3.115 1.124.083 2.278-.568 3-1.418z"/><g><path d="M70.555 69.62H68.76l-.985-3.09h-3.42l-.937 3.09H61.67l3.388-10.527h2.094l3.403 10.527zm-3.076-4.39l-.89-2.748c-.095-.28-.272-.942-.533-1.983h-.03a76.75 76.75 0 0 1-.5 1.982l-.875 2.75h2.827zM79.27 65.732c0 1.292-.348 2.312-1.045 3.06-.626.668-1.4 1-2.327 1-1 0-1.72-.36-2.156-1.078h-.032v3.998h-1.686v-8.184c0-.812-.022-1.645-.063-2.5h1.485l.094 1.204h.03c.564-.907 1.416-1.36 2.562-1.36.895 0 1.643.353 2.24 1.062.6.71.9 1.642.9 2.798zm-1.718.06c0-.738-.166-1.346-.5-1.826-.364-.5-.853-.75-1.468-.75-.416 0-.794.14-1.13.414-.34.277-.562.64-.665 1.087-.054.208-.08.38-.08.513v1.266c0 .552.17 1.018.508 1.398.34.38.78.57 1.32.57.635 0 1.13-.245 1.483-.734.355-.488.532-1.135.532-1.937zM88 65.732c0 1.292-.347 2.312-1.046 3.06-.624.668-1.4 1-2.327 1-1 0-1.718-.36-2.154-1.078h-.032v3.998h-1.686v-8.184c0-.812-.02-1.645-.062-2.5h1.484l.094 1.204h.03c.563-.907 1.417-1.36 2.563-1.36.895 0 1.642.353 2.24 1.062.598.71.898 1.642.898 2.798zm-1.717.06c0-.738-.166-1.346-.5-1.826-.365-.5-.853-.75-1.468-.75-.416 0-.794.14-1.133.414-.34.277-.56.64-.662 1.087-.052.208-.08.38-.08.513v1.266c0 .552.17 1.018.508 1.398.34.38.778.57 1.32.57.636 0 1.13-.245 1.484-.734.354-.488.53-1.135.53-1.937zM97.762 66.668c0 .895-.31 1.625-.935 2.186-.686.615-1.64.922-2.867.922-1.133 0-2.04-.218-2.728-.655l.39-1.404a4.62 4.62 0 0 0 2.438.672c.636 0 1.13-.145 1.485-.43.353-.287.53-.672.53-1.15 0-.428-.145-.788-.437-1.08-.29-.293-.775-.563-1.452-.814-1.843-.688-2.764-1.695-2.764-3.02 0-.865.322-1.575.968-2.127.644-.552 1.503-.83 2.577-.83.958 0 1.754.167 2.39.5l-.422 1.375c-.593-.322-1.264-.484-2.015-.484-.593 0-1.057.146-1.388.437-.28.26-.422.577-.422.954 0 .415.16.76.484 1.03.28.25.79.52 1.53.812.907.365 1.572.79 2 1.28.426.49.638 1.1.638 1.826zM103.34 63.296h-1.86v3.685c0 .938.327 1.406.984 1.406.3 0 .55-.025.75-.078l.046 1.28c-.33.125-.77.187-1.31.187-.667 0-1.188-.203-1.563-.61-.374-.406-.563-1.087-.563-2.045v-3.826h-1.107v-1.266h1.107v-1.39l1.656-.5v1.89h1.86v1.268zM111.726 65.763c0 1.167-.334 2.125-1 2.873-.7.772-1.626 1.156-2.78 1.156-1.115 0-2.002-.37-2.664-1.11-.66-.738-.992-1.67-.992-2.794 0-1.176.34-2.14 1.023-2.89.68-.748 1.6-1.123 2.756-1.123 1.113 0 2.01.37 2.685 1.11.647.717.97 1.642.97 2.778zm-1.75.055c0-.7-.15-1.3-.452-1.802-.354-.606-.86-.907-1.515-.907-.68 0-1.193.3-1.548.906-.302.502-.452 1.112-.452 1.834 0 .7.15 1.3.452 1.8.365.606.874.908 1.532.908.644 0 1.15-.31 1.514-.925.31-.51.468-1.116.468-1.815zM117.208 63.513a2.956 2.956 0 0 0-.53-.047c-.595 0-1.053.224-1.376.672-.28.396-.42.895-.42 1.5v3.982h-1.686l.015-5.2c0-.875-.02-1.672-.062-2.39h1.468l.062 1.452h.047c.178-.5.46-.9.843-1.203a2.04 2.04 0 0 1 1.22-.408c.155 0 .296.01.42.03v1.61zM124.75 65.466c0 .303-.02.557-.063.765h-5.06c.02.75.265 1.324.735 1.72.427.353.978.53 1.655.53.75 0 1.432-.118 2.046-.357l.264 1.17c-.717.313-1.565.47-2.545.47-1.177 0-2.1-.347-2.774-1.04-.67-.692-1.007-1.622-1.007-2.788 0-1.145.313-2.098.94-2.858.654-.812 1.54-1.218 2.653-1.218 1.095 0 1.923.405 2.485 1.217.45.645.672 1.442.672 2.39zm-1.608-.437c.01-.5-.1-.933-.328-1.297-.292-.47-.74-.704-1.344-.704-.55 0-1 .227-1.343.686-.28.365-.448.802-.5 1.31l3.515.003z"/></g></g></g></g></svg>